<?xml version="1.0" encoding="UTF-8"?>
<svg id="Capa_1" data-name="Capa 1" xmlns="http://www.w3.org/2000/svg" viewBox="0 0 216.2 136.75">
  <path d="M75.64.53L7.05,60.72c-2.78,3.18-5.82,8.53-6.57,12.37-.96,4.93-.51,9.88,1.49,14.55,2.13,4.96,8.44,10.22,10.48,11.83.41.32.92.5,1.44.5h71.99c.56,0,4.11-.68,4.54-1.04l56.31-50.23c.9-.77,2.64-.74,3.51.07l17.74,16.46c2.18,2.02,3.14,5.21,2.01,7.96-.34.84-.88,1.68-1.68,2.45-6.07,6.86-10.8,2.12-10.8,2.12l-15.74-14.47-20.41,18.6s16.17,18.08,24.31,18.08h59.36c.61,0,1.19-.23,1.63-.66,2.16-2.11,8.66-8.89,9.25-14.84,1.87-9.11-5.97-16.05-6.88-17.27-.07-.1-.14-.17-.23-.26L147.98,6.64c-.88-.87-2.29-.91-3.21-.08l-80.37,72.05s-9.13,7.81-16.29.12c-6.81-5.57-3.52-12.24-1.78-13.95,6.67-6.58,27.62-25.33,27.62-25.33.93-.86,2.38-.82,3.26.09l10.14,9.82,20.96-18.83L78.98.57c-.91-.95-2.41-.55-3.35-.05Z" fill="#cf3339" fill-rule="evenodd" stroke-width="0"/>
  <g>
    <path d="M5.92,115.82l-.04-.05-.25.25c-1.48,1.46-2.23,3.14-2.23,5.01,0,2.01.84,3.73,2.53,5.14,1.19.78,2.44,1.13,3.71,1.09h8.31s1.06.22,1.06.22c1.43.67,2.13,1.69,2.15,3.07l-.12.98c-.51,1.72-1.75,2.52-3.92,2.52H3.33v2.68h14.15s1.5-.07,1.5-.07h.08c1.26-.34,2.26-.88,3.09-1.68.96-1.13,1.52-2.32,1.67-3.58v-1.44s-.15-.94-.15-.94c-.23-1.03-.85-2.04-1.86-2.99-.95-.83-2.1-1.32-3.45-1.47h-9.16c-.49-.04-1.11-.31-1.75-.76-.89-.82-1.32-1.72-1.32-2.73,0-.38.08-.82.23-1.32.55-1.61,1.76-2.36,3.79-2.36h13.73v-2.75h-13.39c-1.93,0-3.47.39-4.58,1.16Z" fill="#cf3339" stroke-width="0"/>
    <path d="M45.32,125.97c-.11,2.57-1.09,4.66-2.89,6.2-1.78,1.17-3.51,1.76-5.16,1.76h-.53c-.85,0-1.88-.21-3.02-.62-1.84-.72-3.16-1.83-3.92-3.29l-.05-.07c-.72-1-1.08-2.95-1.08-5.8v-9.49h-2.81v10.81c0,.62.09,1.46.28,2.66.53,2.31,1.39,4.02,2.52,5.04,2,2.38,4.92,3.59,8.67,3.59h.39c.88,0,1.81-.17,2.77-.5,1.97-.64,3.59-1.63,4.84-2.96v3.46h2.68v-22.16h-2.68v11.37Z" fill="#cf3339" stroke-width="0"/>
    <path d="M55.78,116.67v-2.02h-2.68v22.09h2.75v-13.47c0-1.68.25-2.88.76-3.57,1.02-1.56,2.46-2.31,4.39-2.31h.67v-2.68h-.74c-1.93,0-3.66.66-5.15,1.97Z" fill="#cf3339" stroke-width="0"/>
    <path d="M81.54,118.5l-.47-.58c-2.32-2.13-5.11-3.21-8.36-3.21h0c-1.33.14-2.62.4-3.86.77-2.45.95-4.32,2.5-5.57,4.62-.92,1.97-1.39,3.87-1.39,5.63s.41,3.58,1.16,5.25c.35.93,1.36,2.13,3.06,3.67l.09.08c2.08,1.34,4.2,2.02,6.29,2.02h1.06c.9,0,2.1-.21,3.6-.64,2.05-.82,3.74-2.09,5.07-3.85,1.12-1.96,1.66-3.36,1.66-4.51l-2.79-.07c-.12.77-.31,1.19-.53,1.68-1.59,3.12-4.14,4.64-7.8,4.64-.73,0-1.62-.17-2.69-.51-1.03-.28-2.22-1.07-3.52-2.31-1.11-1.5-1.71-3.02-1.78-4.57h19.27v-1.07c0-2.22-.62-4.3-1.85-6.21l-.65-.81ZM64.95,123.86c.15-1.08.69-2.26,1.59-3.48,1-1,1.99-1.73,2.92-2.16,1.59-.47,2.79-.7,3.57-.7.99.02,2.1.25,3.31.69,1.45.54,2.65,1.48,3.57,2.77h0c.52.69.91,1.65,1.15,2.87h-16.12Z" fill="#cf3339" stroke-width="0"/>
    <path d="M105.69,125.76c-.11,2.57-1.09,4.66-2.89,6.2-1.78,1.17-3.51,1.76-5.16,1.76h-.53c-.85,0-1.88-.21-3.02-.62-1.84-.72-3.16-1.83-3.92-3.29l-.05-.07c-.72-1-1.08-2.95-1.08-5.8v-9.49h-2.81v10.81c0,.63.09,1.51.28,2.66.53,2.31,1.39,4.02,2.52,5.04,2,2.38,4.92,3.59,8.67,3.59h.39c.88,0,1.82-.17,2.77-.5,1.97-.64,3.59-1.63,4.84-2.96v3.46h2.68v-22.16h-2.68v11.37Z" fill="#cf3339" stroke-width="0"/>
    <path d="M114.32,115.43c-.74.5-1.32,1.13-1.79,1.89-.44.71-.76,1.5-.91,2.32-.07.39-.1.78-.1,1.17,0,2.01.84,3.73,2.53,5.14,1.19.78,2.45,1.13,3.71,1.09h8.31s1.06.22,1.06.22c1.43.67,2.13,1.69,2.15,3.07l-.12.98c-.51,1.72-1.75,2.52-3.92,2.52h-13.8v2.68h14.15s1.5-.07,1.5-.07h.08c1.26-.34,2.26-.88,3.09-1.68.96-1.13,1.52-2.32,1.67-3.58v-1.44s-.15-.94-.15-.94c-.23-1.03-.85-2.04-1.86-2.99-.96-.83-2.11-1.32-3.45-1.47h-9.16c-.49-.04-1.11-.31-1.75-.76-.89-.82-1.32-1.72-1.32-2.73,0-.37.08-.82.23-1.32.55-1.61,1.76-2.36,3.79-2.36h13.73v-2.75h-13.4c-1.76,0-3.2.33-4.3.98Z" fill="#cf3339" stroke-width="0"/>
    <path d="M151.88,127.37l-.54-.32c-1.34-.8-2.65-1.35-3.9-1.65.08-.07.12-.11.15-.13h.13l.19-.19c1.81-1.94,2.98-3.55,3.48-4.79.66-1.37,1.11-3.11,1.31-5.17l.07-.68h-2.66l-.28,1.83c-.34,1.91-1.23,3.75-2.64,5.47-2.42,2.75-5.36,4.21-8.74,4.35v-19.27h-2.75v29.71h2.75v-7.68l2.17-.28c2.07-.47,3.39-.72,3.91-.72,3.13,0,5.56,1.26,7.2,3.7.79,1.59,1.19,2.8,1.19,3.58v1.33h2.81v-.74c0-3.28-1.33-6.07-3.95-8.31l.1-.06Z" fill="#cf3339" stroke-width="0"/>
    <path d="M175.43,118.01c-2.12-2.32-5.04-3.5-8.72-3.5-.54,0-1.47.14-2.89.42-2.81.82-4.99,2.51-6.48,5.03-.92,1.97-1.39,3.82-1.39,5.5,0,1.07.21,2.34.62,3.78.78,2.29,2.1,4.09,3.93,5.34,1.82,1.31,4.12,1.97,6.85,1.97h.6c.65,0,1.46-.14,2.51-.43,2.04-.67,3.71-1.69,4.96-3.03v3.46h2.68v-22.09h-2.68v3.55ZM175.38,125.47c0,1.9-.58,3.69-1.7,5.28-1.8,1.98-3.96,2.99-6.44,2.99h-.39c-1.2,0-2.51-.33-3.87-.98-2.78-1.59-4.13-3.87-4.13-6.96v-.53c0-2.13.76-4.03,2.23-5.62,1.84-1.54,3.79-2.31,5.77-2.31h.39c1.76,0,3.49.58,5.11,1.71,2.01,1.68,3.03,3.84,3.03,6.42Z" fill="#cf3339" stroke-width="0"/>
    <path d="M199.56,118.03c-2.17-2.34-5.03-3.52-8.53-3.52h-.33c-1.05.01-2.28.27-3.65.77-2.69.98-4.71,2.83-6,5.54-.64,1.81-.96,3.37-.96,4.64,0,1.04.23,2.4.7,4.05.95,2.54,2.52,4.41,4.63,5.55,1.64.98,3.71,1.48,6.15,1.48h.39c1.02,0,2.28-.28,3.89-.85,1.46-.65,2.7-1.52,3.72-2.62v3.47h2.68v-29.71h-2.68v11.2ZM199.5,125.52c0,1.5-.4,3-1.16,4.43-1.68,2.5-4.08,3.77-7.12,3.77-1.15,0-2.25-.19-3.25-.54-3.37-1.53-5.01-3.96-5.01-7.4v-.73c0-.67.13-1.45.37-2.31.26-1.05.94-2.13,2-3.2,1.69-1.48,3.67-2.23,5.89-2.23,1.23,0,2.54.29,3.87.88.85.37,1.71,1.03,2.55,1.94h0c1.23,1.64,1.86,3.45,1.86,5.39Z" fill="#cf3339" stroke-width="0"/>
    <rect x="205.65" y="107.03" width="2.69" height="4.65" fill="#cf3339" stroke-width="0"/>
    <rect x="205.64" y="114.44" width="2.71" height="22.09" fill="#cf3339" stroke-width="0"/>
  </g>
</svg>